<svg width="254" height="70" viewBox="0 0 254 70" fill="none" xmlns="http://www.w3.org/2000/svg">
<path d="M13 29.72C9.13333 29.72 6.14667 28.8133 4.04 27C1.96 25.16 0.933334 22.4133 0.96 18.76H7.48C7.45333 20.28 7.90667 21.44 8.84 22.24C9.77333 23.04 11.08 23.44 12.76 23.44C14.1467 23.44 15.24 23.2133 16.04 22.76C16.84 22.3067 17.24 21.6133 17.24 20.68C17.24 19.9067 16.8267 19.3467 16 19C15.2 18.6533 14.4 18.4133 13.6 18.28C12.8 18.12 12.3067 18.0267 12.12 18C10.0667 17.6 8.29333 17.12 6.8 16.56C5.30667 15.9733 4.05333 15.0933 3.04 13.92C2.02667 12.7467 1.52 11.2 1.52 9.28C1.52 7.36 2.02667 5.73333 3.04 4.4C4.05333 3.04 5.4 2.02667 7.08 1.36C8.78667 0.693332 10.64 0.359999 12.64 0.359999C15.0667 0.359999 17.16 0.813332 18.92 1.72C20.7067 2.62667 22.1067 4 23.12 5.84C23.6267 6.72 23.9333 7.57333 24.04 8.4C24.1467 9.2 24.2 9.98667 24.2 10.76H17.68C17.68 9.32 17.2933 8.26666 16.52 7.6C15.7467 6.90667 14.5467 6.56 12.92 6.56C11.6133 6.56 10.6 6.78666 9.88 7.24C9.16 7.69333 8.8 8.30667 8.8 9.08C8.8 9.93333 9.28 10.56 10.24 10.96C11.2 11.36 12.4133 11.72 13.88 12.04C16.28 12.52 18.1467 12.9867 19.48 13.44C20.84 13.8667 22.0133 14.64 23 15.76C23.9867 16.88 24.48 18.4533 24.48 20.48C24.48 22.4 23.9467 24.0533 22.88 25.44C21.8133 26.8267 20.4 27.8933 18.64 28.64C16.9067 29.36 15.0267 29.72 13 29.72ZM42.4094 0.559999C44.4894 0.559999 46.4094 1.08 48.1694 2.12C49.9294 3.13333 51.316 4.52 52.3294 6.28C53.3694 8.04 53.8894 9.96 53.8894 12.04V18.12C53.8894 20.2 53.3694 22.12 52.3294 23.88C51.316 25.64 49.9294 27.04 48.1694 28.08C46.4094 29.0933 44.4894 29.6 42.4094 29.6C40.3294 29.6 38.4094 29.0933 36.6494 28.08C34.8894 27.04 33.4894 25.64 32.4494 23.88C31.436 22.12 30.9294 20.2 30.9294 18.12V12.04C30.9294 9.96 31.436 8.04 32.4494 6.28C33.4894 4.52 34.8894 3.13333 36.6494 2.12C38.4094 1.08 40.3294 0.559999 42.4094 0.559999ZM32.4094 18.12C32.4094 19.9333 32.8494 21.6133 33.7294 23.16C34.636 24.68 35.8494 25.8933 37.3694 26.8C38.916 27.68 40.596 28.12 42.4094 28.12C44.2227 28.12 45.8894 27.68 47.4094 26.8C48.956 25.8933 50.1694 24.68 51.0494 23.16C51.956 21.6133 52.4094 19.9333 52.4094 18.12V12.04C52.4094 10.2267 51.956 8.56 51.0494 7.04C50.1694 5.49333 48.956 4.28 47.4094 3.4C45.8894 2.49333 44.2227 2.04 42.4094 2.04C40.596 2.04 38.916 2.49333 37.3694 3.4C35.8494 4.28 34.636 5.49333 33.7294 7.04C32.8494 8.56 32.4094 10.2267 32.4094 12.04V18.12ZM61.1388 29V1.16H62.6988L82.1388 20.04V1.16H83.6188V29H82.1388V22.12L62.6188 3.08V29H61.1388ZM111.428 23.28C110.708 25.12 109.401 26.64 107.508 27.84C105.615 29.0133 103.588 29.6 101.428 29.6C99.3481 29.6 97.4281 29.08 95.6681 28.04C93.9081 27 92.5081 25.5733 91.4681 23.76C90.4548 21.92 89.9481 19.9067 89.9481 17.72V12.12C89.9481 9.98667 90.4548 8.04 91.4681 6.28C92.5081 4.52 93.8948 3.13333 95.6281 2.12C97.3881 1.08 99.3215 0.559999 101.428 0.559999C103.161 0.559999 104.748 0.853333 106.188 1.44C107.628 2 108.855 2.82667 109.868 3.92C110.695 4.82666 111.361 5.84 111.868 6.96C112.401 8.08 112.668 9.21333 112.668 10.36H111.228C111.201 9.37333 110.948 8.4 110.468 7.44C110.015 6.48 109.428 5.61333 108.708 4.84C106.921 2.97333 104.495 2.04 101.428 2.04C99.5881 2.04 97.8948 2.49333 96.3481 3.4C94.8281 4.28 93.6281 5.49333 92.7481 7.04C91.8681 8.56 91.4281 10.2533 91.4281 12.12V17.72C91.4281 19.6667 91.8681 21.44 92.7481 23.04C93.6548 24.6133 94.8681 25.8533 96.3881 26.76C97.9348 27.6667 99.6148 28.12 101.428 28.12C103.268 28.12 104.948 27.68 106.468 26.8C108.015 25.8933 109.228 24.68 110.108 23.16C110.988 21.6133 111.428 19.9333 111.428 18.12V16.72H101.428V15.24H112.908V29H111.428V23.28ZM130.518 29V8.2H119.998V1.16H142.478V8.2H131.958V29H130.518ZM151.007 1.16L160.887 16.04L170.687 1.16H172.447L161.607 17.6V29H160.127V17.6L149.247 1.16H151.007ZM182.696 29H181.216V1.16H192.416C194.283 1.16 196.003 1.56 197.576 2.36C199.176 3.16 200.443 4.29333 201.376 5.76C202.31 7.22667 202.776 8.92 202.776 10.84C202.776 12.68 202.296 14.3733 201.336 15.92C200.403 17.4667 199.123 18.6533 197.496 19.48C196.083 20.2 194.39 20.56 192.416 20.56H182.696V29ZM182.696 19.08H192.416C194.123 19.08 195.523 18.8133 196.616 18.28C198.03 17.6133 199.163 16.6133 200.016 15.28C200.87 13.9467 201.296 12.4667 201.296 10.84C201.296 9.24 200.87 7.77333 200.016 6.44C199.163 5.10667 198.016 4.10667 196.576 3.44C195.483 2.90666 194.096 2.64 192.416 2.64H182.696V19.08ZM210.466 1.16H230.066V2.64H211.946V13.92H227.706V15.4H211.946V27.52H230.066V29H210.466V1.16ZM246.035 25.96C246.035 24.9733 246.382 24.1333 247.075 23.44C247.795 22.72 248.662 22.36 249.675 22.36C250.688 22.36 251.542 22.72 252.235 23.44C252.955 24.1333 253.315 24.9733 253.315 25.96C253.315 26.9467 252.955 27.8 252.235 28.52C251.542 29.24 250.688 29.6 249.675 29.6C248.688 29.6 247.835 29.24 247.115 28.52C246.395 27.8 246.035 26.9467 246.035 25.96ZM3.24 58.36C3.24 60.12 3.68 61.7467 4.56 63.24C5.46667 64.7333 6.66667 65.92 8.16 66.8C9.68 67.68 11.32 68.12 13.08 68.12C14.8933 68.12 16.5333 67.76 18 67.04C19.4667 66.32 20.6133 65.32 21.44 64.04C22.2933 62.76 22.7333 61.32 22.76 59.72H24.2C24.2 61.56 23.7067 63.24 22.72 64.76C21.76 66.2533 20.4267 67.44 18.72 68.32C17.04 69.1733 15.16 69.6 13.08 69.6C11.0533 69.6 9.17333 69.0933 7.44 68.08C5.70667 67.0667 4.33333 65.7067 3.32 64C2.30667 62.2667 1.8 60.3867 1.8 58.36V51.8C1.8 49.7733 2.29333 47.9067 3.28 46.2C4.29333 44.4667 5.65333 43.0933 7.36 42.08C9.09333 41.0667 10.9733 40.56 13 40.56C15.0533 40.56 16.92 41 18.6 41.88C20.3067 42.7333 21.6533 43.92 22.64 45.44C23.6267 46.9333 24.12 48.6 24.12 50.44H22.68C22.6533 48.84 22.2133 47.4 21.36 46.12C20.5067 44.84 19.3467 43.84 17.88 43.12C16.44 42.4 14.8133 42.04 13 42.04C11.24 42.04 9.61333 42.48 8.12 43.36C6.62667 44.24 5.44 45.4267 4.56 46.92C3.68 48.4133 3.24 50.04 3.24 51.8V58.36ZM42.4094 40.56C44.4894 40.56 46.4094 41.08 48.1694 42.12C49.9294 43.1333 51.316 44.52 52.3294 46.28C53.3694 48.04 53.8894 49.96 53.8894 52.04V58.12C53.8894 60.2 53.3694 62.12 52.3294 63.88C51.316 65.64 49.9294 67.04 48.1694 68.08C46.4094 69.0933 44.4894 69.6 42.4094 69.6C40.3294 69.6 38.4094 69.0933 36.6494 68.08C34.8894 67.04 33.4894 65.64 32.4494 63.88C31.436 62.12 30.9294 60.2 30.9294 58.12V52.04C30.9294 49.96 31.436 48.04 32.4494 46.28C33.4894 44.52 34.8894 43.1333 36.6494 42.12C38.4094 41.08 40.3294 40.56 42.4094 40.56ZM32.4094 58.12C32.4094 59.9333 32.8494 61.6133 33.7294 63.16C34.636 64.68 35.8494 65.8933 37.3694 66.8C38.916 67.68 40.596 68.12 42.4094 68.12C44.2227 68.12 45.8894 67.68 47.4094 66.8C48.956 65.8933 50.1694 64.68 51.0494 63.16C51.956 61.6133 52.4094 59.9333 52.4094 58.12V52.04C52.4094 50.2267 51.956 48.56 51.0494 47.04C50.1694 45.4933 48.956 44.28 47.4094 43.4C45.8894 42.4933 44.2227 42.04 42.4094 42.04C40.596 42.04 38.916 42.4933 37.3694 43.4C35.8494 44.28 34.636 45.4933 33.7294 47.04C32.8494 48.56 32.4094 50.2267 32.4094 52.04V58.12ZM62.2588 69H60.7788V41.16H62.3788L72.0988 58.32L81.7788 41.16H83.2588V69H81.7788V44.12L72.7788 60H71.3788L62.2588 43.92V69Z" fill="#F0F1B9"/>
</svg>
